<svg width="24" height="24" viewBox="0 0 24 24" fill="none" xmlns="http://www.w3.org/2000/svg">
<g id="&#233;&#130;&#174;&#231;&#174;&#177; 1">
<path id="Vector" d="M20.7886 5.26221H3.17104C2.24385 5.26221 1.49219 6.01385 1.49219 6.94108V17.8052C1.49219 18.7324 2.24383 19.4841 3.17104 19.4841H20.7887C21.7159 19.4841 22.4675 18.7324 22.4675 17.8052V6.94108C22.4675 6.01385 21.7159 5.26221 20.7886 5.26221ZM21.0871 7.61193V17.1443C21.0871 17.1452 21.087 17.1461 21.087 17.147L16.0223 12.6015L21.0871 7.61191V7.61193ZM8.97752 13.5455C10.6415 14.7356 13.463 14.8259 15.0269 13.5631L20.0861 18.1036H3.89868L8.97752 13.5455V13.5455ZM20.0262 6.64265L14.9089 11.683C13.0858 13.5621 10.7034 13.4502 8.98141 11.6449L4.0289 6.64265H20.0262ZM2.87259 7.602C2.87259 7.55458 2.87617 7.50801 2.8828 7.46247L7.96621 12.5983L2.87324 17.1691C2.87301 17.1608 2.87261 17.1526 2.87261 17.1443L2.87259 7.602Z" fill="white"/>
</g>
</svg>
