<svg width="24" height="24" viewBox="0 0 24 24" fill="none" xmlns="http://www.w3.org/2000/svg">
<g id="&#228;&#186;&#146;&#232;&#129;&#148;&#231;&#189;&#145;">
<path id="Vector" d="M12 22.5C6.21023 22.5 1.5 17.7898 1.5 12C1.5 6.21023 6.21023 1.5 12 1.5C17.7898 1.5 22.5 6.21023 22.5 12C22.5 17.7898 17.7898 22.5 12 22.5ZM12 2.73539C6.89133 2.73539 2.73539 6.89156 2.73539 12C2.73539 17.1084 6.89133 21.2646 12 21.2646C17.1087 21.2646 21.2646 17.1087 21.2646 12C21.2646 6.89133 17.1087 2.73539 12 2.73539Z" fill="white"/>
<path id="Vector_2" d="M4.65258 19.2244C4.56595 19.2245 4.48028 19.2064 4.40113 19.1712C4.32199 19.136 4.25114 19.0845 4.1932 19.0201C2.45625 17.09 1.5 14.5969 1.5 12.0001C1.5 9.40319 2.45625 6.91015 4.19297 4.97984C4.40062 4.74921 4.7468 4.70843 5.0025 4.88444C7.06734 6.3071 9.48703 7.05898 12 7.05898C14.5127 7.05898 16.9324 6.3071 18.9975 4.88468C19.2532 4.70843 19.5994 4.74968 19.807 4.98007C21.5435 6.91015 22.5 9.40319 22.5 12.0001C22.5 14.5969 21.5437 17.09 19.807 19.0201C19.5996 19.2507 19.2527 19.2917 18.9975 19.1155C16.9327 17.693 14.513 16.9412 12 16.9412C9.48703 16.9412 7.06734 17.693 5.0025 19.1155C4.89964 19.1865 4.77758 19.2245 4.65258 19.2244ZM12 15.706C14.577 15.706 17.0651 16.4251 19.2312 17.7905C20.546 16.1506 21.2646 14.1141 21.2646 12.0001C21.2646 9.88577 20.546 7.84952 19.2314 6.2096C17.0651 7.57507 14.577 8.29413 12 8.29413C9.42305 8.29413 6.93469 7.57507 4.76859 6.20937C3.45375 7.84929 2.73539 9.88577 2.73539 11.9998C2.73539 14.1139 3.45398 16.1501 4.76883 17.7903C6.93469 16.4251 9.42305 15.706 12 15.706Z" fill="white"/>
<path id="Vector_3" d="M12.0007 8.29406C9.23644 8.29406 6.57418 7.46672 4.30238 5.90156C4.23008 5.85171 4.16924 5.78702 4.1239 5.71181C4.07855 5.6366 4.04975 5.5526 4.03941 5.46539C4.02912 5.37813 4.03755 5.28969 4.06414 5.20595C4.09074 5.1222 4.13488 5.0451 4.19363 4.97977C6.18347 2.76844 9.02902 1.5 12.0007 1.5C14.9725 1.5 17.8178 2.76844 19.8077 4.98023C19.8664 5.04552 19.9106 5.12259 19.9372 5.20629C19.9638 5.29 19.9722 5.37841 19.9619 5.46563C19.9516 5.55285 19.9228 5.63687 19.8775 5.71209C19.8321 5.7873 19.7713 5.85198 19.6989 5.9018C17.4267 7.46695 14.7649 8.29406 12.0007 8.29406ZM5.62074 5.28352C7.54355 6.44719 9.73426 7.05891 12.0007 7.05891C14.2668 7.05891 16.4575 6.44719 18.3803 5.28375C16.6657 3.65602 14.3789 2.73539 12.0007 2.73539C9.62246 2.73539 7.33566 3.65602 5.62074 5.28352ZM12.0007 22.5C9.02902 22.5 6.18347 21.2316 4.19363 19.02C4.13488 18.9547 4.09074 18.8776 4.06414 18.7938C4.03755 18.7101 4.02912 18.6216 4.03941 18.5344C4.04969 18.4471 4.07847 18.3631 4.12382 18.2879C4.16917 18.2127 4.23004 18.148 4.30238 18.0982C6.57441 16.533 9.23644 15.7059 12.0007 15.7059C14.7649 15.7059 17.4267 16.5333 19.6989 18.0982C19.7712 18.1481 19.8321 18.2127 19.8774 18.288C19.9228 18.3632 19.9516 18.4472 19.9619 18.5344C19.9722 18.6216 19.9637 18.7101 19.9372 18.7938C19.9106 18.8776 19.8664 18.9547 19.8077 19.02C17.8178 21.2316 14.9723 22.5 12.0007 22.5ZM5.62097 18.7162C7.3359 20.344 9.62246 21.2646 12.0007 21.2646C14.3789 21.2646 16.6654 20.344 18.3803 18.7162C16.4575 17.5528 14.2668 16.9411 12.0007 16.9411C9.73426 16.9411 7.54379 17.5528 5.62097 18.7162Z" fill="white"/>
<path id="Vector_4" d="M11.9991 22.5001C11.8766 22.5001 11.7542 22.4638 11.6485 22.3909C7.83289 19.7598 5.64453 15.9725 5.64453 12.0001C5.64453 8.02769 7.83289 4.24043 11.6487 1.60934C11.7518 1.53814 11.8741 1.5 11.9994 1.5C12.1246 1.5 12.2469 1.53814 12.35 1.60934C16.1654 4.24066 18.3538 8.02793 18.3538 12.0001C18.3538 15.9723 16.1654 19.7596 12.3495 22.3909C12.2441 22.4638 12.1217 22.5001 11.9991 22.5001ZM11.9991 2.87519C8.73969 5.25668 6.87969 8.5616 6.87969 12.0001C6.87969 15.4386 8.73969 18.7436 11.9991 21.125C15.2586 18.7433 17.1186 15.4386 17.1186 12.0001C17.1186 8.5616 15.2586 5.25691 11.9991 2.87519Z" fill="white"/>
<path id="Vector_5" d="M12.0004 22.5C11.6594 22.5 11.3828 22.2234 11.3828 21.8824V2.11781C11.3828 1.77656 11.6594 1.5 12.0004 1.5C12.3414 1.5 12.618 1.77656 12.618 2.11758V21.8822C12.618 22.2234 12.3414 22.5 12.0004 22.5Z" fill="white"/>
<path id="Vector_6" d="M21.8824 12.6175H2.11758C1.77656 12.6175 1.5 12.3409 1.5 11.9999C1.5 11.6589 1.77656 11.3823 2.11758 11.3823H21.8822C22.2232 11.3823 22.4998 11.6589 22.4998 11.9999C22.5 12.3409 22.2234 12.6175 21.8824 12.6175Z" fill="white"/>
</g>
</svg>
