<svg width="30" height="30" viewBox="0 0 30 30" fill="none" xmlns="http://www.w3.org/2000/svg">
<g id="&#231;&#148;&#181;&#232;&#175;&#157;">
<path id="Vector" d="M21.8962 28.2505C21.5965 28.2505 21.2941 28.2071 20.9977 28.1178C17.3212 27.0124 13.5978 24.6619 10.5132 21.4987C10.0363 21.0093 9.57625 20.5037 9.13389 19.9829C8.68946 19.4594 8.26114 18.9188 7.86124 18.376C5.23918 14.8208 3.52207 10.7664 3.02637 6.95867C2.87461 5.79353 3.38555 4.65213 4.35967 3.97947C5.08104 3.48141 5.82722 3.02027 6.59532 2.59783C6.8127 2.47859 7.03038 2.36287 7.24864 2.25154C7.87764 1.92986 8.60655 1.9158 9.24786 2.21463C9.89824 2.51668 10.3649 3.09207 10.5281 3.79343C10.8117 5.01394 11.3898 6.18172 12.0021 7.41834L12.1189 7.65476C12.426 8.27586 12.3785 9.02088 11.995 9.59832C11.6068 10.1825 11.1123 10.9413 10.7297 11.6277C10.6301 11.8067 10.6321 12.0288 10.7358 12.2072C11.5447 13.6009 12.4995 14.9485 13.573 16.2124C14.6461 17.4762 15.8215 18.6361 17.0663 19.6606C17.2251 19.791 17.4439 19.83 17.637 19.7602C18.3735 19.4951 19.2035 19.1292 19.8445 18.84C20.4768 18.5547 21.2197 18.6297 21.7828 19.0325L21.9973 19.1863C23.1185 19.9902 24.177 20.7496 25.3351 21.2271C26.001 21.5016 26.4935 22.0553 26.6862 22.7459C26.8761 23.4273 26.7448 24.1439 26.3256 24.7129C26.1795 24.9113 26.0304 25.1074 25.8782 25.3012C25.343 25.9835 24.7626 26.6509 24.1529 27.284C23.5482 27.9115 22.7332 28.2505 21.8962 28.2505Z" fill="white"/>
</g>
</svg>
