<svg width="80" height="96" viewBox="0 0 80 96" fill="none" xmlns="http://www.w3.org/2000/svg">
<g id="pin">
<path id="Oval" d="M40 76C59.8823 76 76 59.8823 76 40C76 20.1177 59.8823 4 40 4C20.1177 4 4 20.1177 4 40C4 59.8823 20.1177 76 40 76Z" fill="white"/>
<path id="Shape" fill-rule="evenodd" clip-rule="evenodd" d="M40 0C17.912 0 0 17.58 0 39.26C0 61.0394 17.1197 76.0023 39.2643 95.357L40 96L40.7357 95.357C62.8803 76.0023 80 61.0394 80 39.26C80 17.58 62.088 0 40 0ZM40 72C22.324 72 8 57.672 8 40C8 22.328 22.324 8 40 8C57.676 8 72 22.328 72 40C72 57.672 57.676 72 40 72ZM46.112 32.612L40 20L33.888 32.612L20 34.528L30.108 44.24L27.64 58.04L40 51.428L52.36 58.044L49.892 44.244L60 34.528L46.112 32.612Z" fill="#28976F"/>
</g>
</svg>
