<svg width="24" height="24" viewBox="0 0 24 24" fill="none" xmlns="http://www.w3.org/2000/svg">
<g id="&#229;&#174;&#154;&#228;&#189;&#141;">
<path id="Vector" d="M2.73445 22.1466C2.50383 22.1466 2.27461 22.0817 2.07258 21.953C1.71398 21.7252 1.5 21.3355 1.5 20.9105V13.6278C1.5 13.1511 1.77914 12.7119 2.21109 12.5094L8.44406 9.58766C8.53819 9.54355 8.64193 9.52391 8.74567 9.53056C8.84941 9.53721 8.9498 9.56993 9.03753 9.62569C9.12526 9.68145 9.1975 9.75845 9.24756 9.84956C9.29762 9.94066 9.32388 10.0429 9.32391 10.1469V18.7939C9.32391 19.0334 9.18539 19.2514 8.96859 19.3531L3.25969 22.0292C3.09188 22.1077 2.91281 22.1466 2.73445 22.1466ZM8.08828 11.1186L2.73539 13.6278V20.9105L8.08828 18.4013V11.1186Z" fill="white"/>
<path id="Vector_2" d="M15.2957 22.4999C15.2064 22.4999 15.1169 22.4806 15.0337 22.4415L8.44539 19.3534C8.33911 19.3036 8.24923 19.2245 8.18626 19.1255C8.12329 19.0265 8.08985 18.9115 8.08984 18.7942V10.1469C8.08984 9.93572 8.19789 9.73908 8.37625 9.62564C8.55438 9.51221 8.77867 9.49814 8.96969 9.58767L15.5577 12.6758C15.664 12.7256 15.7539 12.8046 15.8169 12.9037C15.8798 13.0027 15.9133 13.1177 15.9133 13.235V21.8821C15.9133 22.0932 15.8052 22.2899 15.6269 22.4033C15.5263 22.4675 15.4112 22.4999 15.2957 22.4999ZM9.32523 18.4013L14.6781 20.9106V13.6278L9.32523 11.1186V18.4013Z" fill="white"/>
<path id="Vector_3" d="M15.2923 22.5C15.1768 22.5 15.0617 22.4677 14.9609 22.4037C14.8732 22.3479 14.801 22.2709 14.7509 22.1798C14.7008 22.0887 14.6746 21.9864 14.6745 21.8824V13.2354C14.6745 13.118 14.708 13.0031 14.7709 12.9041C14.8339 12.805 14.9238 12.726 15.0301 12.6762L20.7387 10.0003C21.1234 9.82008 21.5668 9.84867 21.9256 10.0763C22.284 10.3043 22.4982 10.6938 22.4982 11.1187V18.4015C22.4982 18.8782 22.2193 19.3172 21.7876 19.5199C21.7876 19.5199 21.7873 19.5199 21.7873 19.5202L15.5544 22.4416C15.4724 22.4802 15.3829 22.5001 15.2923 22.5ZM15.9099 13.628V20.9107L21.263 18.4015H21.2628V11.1187L15.9099 13.628ZM11.9982 7.05891C10.4656 7.05891 9.21875 5.81203 9.21875 4.27945C9.21875 2.74687 10.4656 1.5 11.9982 1.5C13.5308 1.5 14.7777 2.74687 14.7777 4.27945C14.7777 5.81203 13.5308 7.05891 11.9982 7.05891ZM11.9982 2.73539C11.1467 2.73539 10.4541 3.4282 10.4541 4.27945C10.4541 5.1307 11.147 5.82352 11.9982 5.82352C12.8495 5.82352 13.5423 5.1307 13.5423 4.27945C13.5423 3.4282 12.8497 2.73539 11.9982 2.73539Z" fill="white"/>
<path id="Vector_4" d="M12.0004 16.9413C11.6594 16.9413 11.3828 16.6647 11.3828 16.3237V6.44131C11.3828 6.10029 11.6594 5.82373 12.0004 5.82373C12.3414 5.82373 12.618 6.10029 12.618 6.44131V16.3237C12.618 16.6647 12.3414 16.9413 12.0004 16.9413Z" fill="white"/>
</g>
</svg>
