<svg width="40" height="48" viewBox="0 0 40 48" fill="none" xmlns="http://www.w3.org/2000/svg">
<path id="Shape" fill-rule="evenodd" clip-rule="evenodd" d="M20 0C8.956 0 0 8.79 0 19.63C0 30.5197 8.55985 38.0011 19.6322 47.6785L20 48L20.3678 47.6785C31.4402 38.0011 40 30.5197 40 19.63C40 8.79 31.044 0 20 0ZM20 36C11.162 36 4 28.836 4 20C4 11.164 11.162 4 20 4C28.838 4 36 11.164 36 20C36 28.836 28.838 36 20 36ZM23.056 16.306L20 10L16.944 16.306L10 17.264L15.054 22.12L13.82 29.02L20 25.714L26.18 29.022L24.946 22.122L30 17.264L23.056 16.306Z" fill="white"/>
</svg>
