<svg width="160" height="48" viewBox="0 0 160 48" fill="none" xmlns="http://www.w3.org/2000/svg">
<g id="&#231;&#164;&#190;&#228;&#186;&#164;icon">
<circle id="Oval" cx="136" cy="24" r="23" stroke="white" stroke-opacity="0.8" stroke-width="2"/>
<g id="&#229;&#190;&#174;&#229;&#141;&#154;">
<path id="&#229;&#189;&#162;&#231;&#138;&#182;" fill-rule="evenodd" clip-rule="evenodd" d="M145.739 22.5228V22.5207C146.269 20.8815 145.934 19.0154 144.685 17.6477C143.44 16.2778 141.602 15.7541 139.908 16.1124C139.515 16.1951 139.265 16.5789 139.348 16.967C139.388 17.1536 139.503 17.3169 139.664 17.4208C139.825 17.5247 140.022 17.5608 140.211 17.5205C141.46 17.2554 142.756 17.6731 143.608 18.6125C144.465 19.5541 144.749 20.8751 144.354 22.0796H144.357C144.297 22.262 144.314 22.4592 144.401 22.6288C144.535 22.8875 144.812 23.0423 145.105 23.019C145.398 22.9957 145.648 22.8006 145.739 22.5228ZM140.239 19.7384C140.378 19.8296 140.548 19.8593 140.709 19.8253C141.127 19.7363 141.56 19.8762 141.85 20.1901C142.136 20.506 142.23 20.9492 142.098 21.3521H142.1C141.992 21.6766 142.172 22.0265 142.501 22.1325C142.658 22.1834 142.83 22.1685 142.978 22.0943C143.127 22.0201 143.237 21.8907 143.288 21.7338C143.547 20.9365 143.385 20.0268 142.777 19.3588C142.192 18.7142 141.303 18.43 140.448 18.6124C140.109 18.6845 139.895 19.0132 139.967 19.3482C140.003 19.5094 140.099 19.6493 140.239 19.7384ZM141.265 23.3435C142.353 23.6785 143.564 24.4885 143.564 25.9135C143.564 28.2758 140.133 31.2509 134.976 31.2509C131.042 31.2509 127.02 29.3573 127.02 26.2443C127.02 24.6158 128.059 22.7349 129.846 20.9578C132.234 18.5871 135.02 17.5077 136.068 18.5489C136.53 19.007 136.575 19.8022 136.278 20.75C136.133 21.1954 136.652 20.9941 136.722 20.967L136.728 20.9647L136.729 20.9643C136.729 20.9642 136.729 20.9642 136.729 20.9642C136.729 20.9642 136.729 20.9642 136.729 20.9642C138.659 20.1605 140.345 20.1139 140.96 20.9875C141.286 21.4519 141.257 22.1051 140.954 22.8621C140.814 23.2085 140.995 23.2624 141.262 23.3425L141.265 23.3435ZM140.302 25.8711C140.506 27.9195 138.124 29.828 134.986 30.1355C131.848 30.443 129.138 29.0349 128.934 26.9865C128.73 24.9423 131.112 23.0317 134.25 22.7242C137.389 22.4167 140.099 23.8269 140.302 25.8711ZM135.297 24.3021C136.843 24.6987 137.632 26.147 137 27.5529C136.359 28.9927 134.516 29.7583 132.954 29.2578C131.444 28.7743 130.806 27.2942 131.467 25.9604C132.116 24.6541 133.804 23.9162 135.297 24.3021ZM133.808 26.4562C134.3 26.664 134.457 27.2196 134.158 27.7052C133.855 28.1844 133.206 28.3965 132.716 28.1738C132.232 27.9575 132.09 27.3977 132.394 26.9291C132.693 26.4625 133.322 26.2547 133.808 26.4562Z" fill="white" fill-opacity="0.8"/>
</g>
<circle id="Oval_2" cx="80" cy="24" r="23" stroke="white" stroke-opacity="0.8" stroke-width="2"/>
<g id="qq">
<path id="&#232;&#183;&#175;&#229;&#190;&#132;" d="M72.5214 25.232C72.9854 24.128 73.6334 23.312 74.1134 23.136C74.1054 22.496 74.2254 22.096 74.4254 21.776C74.4254 21.752 74.3774 21.488 74.5534 21.16C74.6734 18.28 76.5454 16 79.5774 16C82.6094 16 84.4814 18.28 84.6014 21.16C84.7774 21.488 84.7294 21.752 84.7294 21.776C84.9294 22.096 85.0494 22.496 85.0414 23.136C85.5214 23.312 86.1694 24.128 86.6334 25.24C87.2334 26.648 87.3294 28 86.8494 28.24C86.5214 28.4 86.0014 28 85.5134 27.296C85.3214 28.08 84.8414 28.8 84.1614 29.368C84.8814 29.632 85.3454 30.064 85.3454 30.552C85.3454 31.352 84.0814 32 82.5294 32C81.1214 32 79.9774 31.472 79.7454 30.8H79.4094C79.1774 31.472 78.0334 32 76.6254 32C75.0734 32 73.8094 31.352 73.8094 30.552C73.8094 30.064 74.2734 29.632 74.9934 29.368C74.3134 28.8 73.8334 28.08 73.6414 27.296C73.1534 28 72.6334 28.4 72.3054 28.24C71.8254 28 71.9214 26.648 72.5214 25.232Z" fill="white" fill-opacity="0.8"/>
</g>
<circle id="Oval_3" cx="24" cy="24" r="23" stroke="white" stroke-opacity="0.8" stroke-width="2"/>
<g id="&#229;&#190;&#174;&#228;&#191;&#161;">
<path id="&#229;&#189;&#162;&#231;&#138;&#182;_2" fill-rule="evenodd" clip-rule="evenodd" d="M27.8801 20.8666C27.6604 20.842 27.4388 20.8256 27.2149 20.8256C23.933 20.8256 21.3409 23.2752 21.3409 26.2937C21.3409 26.7955 21.419 27.2794 21.5541 27.7413C21.3409 27.7579 21.1259 27.7687 20.9091 27.7687C20.1836 27.7687 19.5777 27.6443 18.8892 27.503L18.8892 27.503C18.7591 27.4763 18.6262 27.449 18.4889 27.4218L16.0737 28.6329L16.7647 26.5546C15.0351 25.3461 14 23.7879 14 21.8905C14 18.6033 17.1111 16.0146 20.9091 16.0146C24.3061 16.0146 27.2824 18.0829 27.8801 20.8666ZM24.3632 19.8148C24.3632 19.2949 24.0187 18.9526 23.4984 18.9526C22.9805 18.9526 22.461 19.2948 22.4609 19.8148C22.4609 20.3326 22.9805 20.6796 23.4984 20.6796C24.0187 20.6796 24.3632 20.3326 24.3632 19.8148ZM18.6654 20.6796C18.1476 20.6796 17.625 20.3326 17.625 19.8147C17.625 19.2948 18.1476 18.9526 18.6654 18.9526C19.1833 18.9526 19.5279 19.2948 19.5279 19.8147C19.5279 20.3326 19.1833 20.6796 18.6654 20.6796ZM27.6537 21.1968C30.7582 21.1968 33.5223 23.4482 33.5223 26.2105C33.5223 27.7686 32.4891 29.1482 31.1022 30.1887L31.6218 31.9153L29.7267 30.8775C29.0358 31.0508 28.3418 31.2242 27.6537 31.2242C24.3664 31.2242 21.7773 28.9775 21.7773 26.2105C21.7773 23.4482 24.3664 21.1968 27.6537 21.1968ZM25.7458 25.3461C25.4017 25.3461 25.0547 25.0039 25.0547 24.6547C25.0547 24.3106 25.4017 23.9639 25.7458 23.9639C26.2684 23.9639 26.6106 24.3105 26.6106 24.6547C26.6106 25.0039 26.2684 25.3461 25.7458 25.3461ZM28.8594 24.6547C28.8594 25.0039 29.204 25.3461 29.5456 25.3461C30.0634 25.3461 30.4104 25.0039 30.4104 24.6547C30.4104 24.3105 30.0635 23.9639 29.5456 23.9639C29.204 23.9639 28.8594 24.3106 28.8594 24.6547Z" fill="white" fill-opacity="0.8"/>
</g>
</g>
</svg>
